<?xml version="1.0" standalone="no"?>
<!DOCTYPE svg PUBLIC "-//W3C//DTD SVG 20010904//EN"
 "http://www.w3.org/TR/2001/REC-SVG-20010904/DTD/svg10.dtd">
<svg version="1.0" xmlns="http://www.w3.org/2000/svg"
 width="700.000000pt" height="700.000000pt" viewBox="0 0 700.000000 700.000000"
 preserveAspectRatio="xMidYMid meet">
<metadata>
Created by potrace 1.14, written by Peter Selinger 2001-2017
</metadata>
<g transform="translate(0.000000,700.000000) scale(0.100000,-0.100000)"
fill="#000000" stroke="none">
<path d="M1966 4634 c-83 -16 -185 -62 -243 -110 -79 -65 -166 -245 -193 -399
-8 -51 -11 -227 -8 -640 4 -556 4 -572 26 -643 74 -241 193 -368 399 -424 113
-30 363 -30 476 0 156 43 242 111 307 245 61 129 71 179 77 385 l5 182 -226 0
-226 0 0 -132 c0 -218 -25 -321 -86 -359 -29 -18 -47 -21 -109 -17 -69 3 -77
6 -110 38 -70 68 -70 68 -70 765 0 563 2 625 18 677 28 93 96 133 201 119 71
-10 103 -32 129 -89 18 -40 21 -72 25 -224 l4 -178 225 0 225 0 -4 188 c-4
160 -8 196 -27 252 -37 105 -81 181 -146 246 -50 50 -73 65 -135 87 -41 14
-102 31 -134 37 -83 14 -317 11 -400 -6z"/>
<path d="M3380 4607 c0 -2 -97 -483 -215 -1069 -118 -586 -215 -1073 -215
-1082 0 -15 20 -16 217 -14 l217 3 36 200 c20 110 40 217 44 238 l7 37 176 -2
177 -3 32 -205 c18 -113 36 -220 39 -237 l6 -33 214 0 c118 0 215 3 215 8 0 4
-97 491 -215 1082 -118 591 -215 1076 -215 1077 0 2 -117 3 -260 3 -143 0
-260 -2 -260 -3z m330 -996 c33 -212 60 -393 60 -403 0 -16 -11 -18 -131 -18
l-131 0 6 28 c3 15 30 191 61 392 57 378 66 425 71 400 2 -8 31 -188 64 -399z"/>
<path d="M4280 4445 l0 -165 175 0 175 0 0 -920 0 -920 230 0 230 0 0 920 0
920 175 0 175 0 0 165 0 165 -580 0 -580 0 0 -165z"/>
</g>
</svg>
